<svg width="1411" height="1328" viewBox="0 0 1411 1328" fill="none" xmlns="http://www.w3.org/2000/svg">
<path d="M559.472 248.981C607.291 248.982 646.057 287.747 646.057 335.566V918.059L636.773 897.332L636.26 896.187L635.608 895.114L592.108 823.614L591.581 822.748L590.969 821.94L581.083 808.879C552.423 771.017 515.359 740.421 472.887 719.454V335.566C472.887 287.747 511.653 248.981 559.472 248.981Z" stroke="white" stroke-width="39.9623"/>
<circle cx="333.019" cy="994.943" r="306.377" stroke="white" stroke-width="53.283"/>
<path d="M1303.47 19.9814C1351.29 19.9817 1390.06 58.747 1390.06 106.566V689.059L1380.77 668.332L1380.26 667.187L1379.61 666.114L1336.11 594.614L1335.58 593.748L1334.97 592.94L1325.08 579.879C1296.42 542.017 1259.36 511.421 1216.89 490.454V106.566C1216.89 58.7469 1255.65 19.9814 1303.47 19.9814Z" stroke="white" stroke-width="39.9623"/>
<circle cx="1077.02" cy="765.943" r="306.377" stroke="white" stroke-width="53.283"/>
</svg>
