<svg width="1927" height="1977" viewBox="0 0 1927 1977" fill="none" xmlns="http://www.w3.org/2000/svg">
<rect width="1927" height="1976.41" rx="395.282" fill="#1F1F1F"/>
<rect width="1927" height="1976.41" rx="395.282" fill="url(#paint0_radial_1004_42)" fill-opacity="0.2"/>
<path d="M1289.36 652.321C1256.55 652.321 1229.2 679.666 1229.2 712.48V898.425C1299.39 921.212 1349.52 986.84 1349.52 1064.32V712.48C1349.52 679.666 1322.18 652.321 1289.36 652.321Z" fill="white"/>
<path d="M1229.2 898.421C1211.89 892.952 1193.66 890.218 1174.51 890.218C1077.9 890.218 1000.42 968.606 1000.42 1064.31C1000.42 1160.02 1078.81 1238.41 1174.51 1238.41C1270.22 1238.41 1348.61 1160.93 1348.61 1064.31C1348.61 986.836 1298.48 921.209 1228.29 898.421H1229.2Z" fill="#FF7D80"/>
<path d="M866.424 738.911C833.61 738.911 806.265 766.256 806.265 799.07V985.014C876.45 1007.8 926.582 1073.43 926.582 1150.91V799.07C926.582 766.256 899.238 738.911 866.424 738.911Z" fill="white"/>
<path d="M806.264 984.102C788.946 978.633 770.716 975.899 751.575 975.899C654.956 975.899 577.479 1054.29 577.479 1149.99C577.479 1245.7 655.868 1324.09 751.575 1324.09C847.282 1324.09 925.67 1246.61 925.67 1149.99C925.67 1072.52 875.538 1006.89 805.353 984.102H806.264Z" fill="#FF7D80"/>
<defs>
<radialGradient id="paint0_radial_1004_42" cx="0" cy="0" r="1" gradientTransform="matrix(1205.59 1070.56 -60.7282 1236.5 542.271 -205.876)" gradientUnits="userSpaceOnUse">
<stop stop-color="white"/>
<stop offset="1" stop-color="white" stop-opacity="0"/>
</radialGradient>
</defs>
</svg>
