<?xml version="1.0" encoding="UTF-8"?>
<svg id="Layer_1" xmlns="http://www.w3.org/2000/svg" version="1.1" viewBox="0 0 375.8 94.1">
  <!-- Generator: Adobe Illustrator 29.5.1, SVG Export Plug-In . SVG Version: 2.1.0 Build 141)  -->
  <defs>
    <style>
      .st0 {
        fill: #ff7d80;
      }

      .st1 {
        fill: #fff;
      }
    </style>
  </defs>
  <g>
    <g>
      <path class="st1" d="M92.4,55.4h0s0,0,0,0h0Z"/>
      <path class="st1" d="M85.8,10.2c-3.6,0-6.6,3-6.6,6.6v20.4c7.7,2.5,13.2,9.7,13.2,18.2V16.8c0-3.6-3-6.6-6.6-6.6Z"/>
      <path class="st0" d="M79.2,37.2c-1.9-.6-3.9-.9-6-.9-10.6,0-19.1,8.6-19.1,19.1s8.6,19.1,19.1,19.1,19.1-8.5,19.1-19.1c0,0,0,0,0,0,0-8.5-5.5-15.7-13.2-18.2Z"/>
    </g>
    <g>
      <path class="st1" d="M46,64.9h0s0,0,0,0h0Z"/>
      <path class="st1" d="M39.4,19.7c-3.6,0-6.6,3-6.6,6.6v20.4c7.7,2.5,13.2,9.7,13.2,18.2V26.3c0-3.6-3-6.6-6.6-6.6Z"/>
      <path class="st0" d="M32.8,46.6c-1.9-.6-3.9-.9-6-.9-10.6,0-19.1,8.6-19.1,19.1s8.6,19.1,19.1,19.1,19.1-8.5,19.1-19.1c0,0,0,0,0,0,0-8.5-5.5-15.7-13.2-18.2Z"/>
    </g>
  </g>
  <g>
    <g>
      <path class="st1" d="M135,36.9c2,0,4,.4,5.8,1.2,1.8.8,3.4,1.9,4.7,3.3,1.3,1.4,2.4,3.1,3.2,5s1.2,4,1.2,6.3-.4,4.3-1.3,6.3c-.8,1.9-2,3.6-3.4,5-1.4,1.4-3.1,2.5-5.1,3.3-1.9.8-4,1.2-6.1,1.2s-4.6-.4-6.6-1.2c-2-.8-3.7-1.9-5.1-3.3-1.4-1.4-2.5-3-3.3-4.9-.8-1.9-1.2-3.9-1.2-6v-24.2c0-1.8,1.5-3.3,3.3-3.3h0c1.8,0,3.3,1.5,3.3,3.3v13.2c1.1-1.6,2.5-2.9,4.3-3.9,1.8-.9,3.9-1.4,6.3-1.4ZM133.8,62.2c1.3,0,2.6-.2,3.7-.7,1.1-.5,2.1-1.1,3-2,.8-.8,1.5-1.8,2-3,.5-1.2.7-2.4.7-3.9s-.2-2.7-.7-3.9c-.5-1.2-1.1-2.2-2-3-.8-.8-1.8-1.5-3-2-1.1-.5-2.4-.7-3.7-.7s-2.6.2-3.7.7c-1.1.5-2.1,1.1-3,2-.8.8-1.5,1.8-2,3-.5,1.2-.7,2.4-.7,3.9s.2,2.7.7,3.9c.5,1.2,1.1,2.2,2,3,.8.8,1.8,1.5,3,2,1.1.5,2.4.7,3.7.7Z"/>
      <path class="st1" d="M169.5,36.9c2.4,0,4.5.3,6.5,1,2,.7,3.7,1.7,5.1,3.1,1.4,1.4,2.5,3,3.3,5,.8,2,1.2,4.3,1.2,6.9v14.9h-6.6v-4.4c-1.1,1.6-2.6,2.8-4.3,3.8-1.8.9-3.9,1.4-6.3,1.4s-4-.4-5.7-1.2c-1.8-.8-3.4-1.9-4.7-3.3-1.4-1.4-2.4-3.1-3.2-5-.8-1.9-1.2-4-1.2-6.3s.4-4.3,1.2-6.3c.8-1.9,1.9-3.6,3.3-5,1.4-1.4,3.1-2.5,5.1-3.3,1.9-.8,4.1-1.2,6.4-1.2ZM169.5,62.2c1.3,0,2.6-.2,3.7-.7,1.1-.5,2.1-1.1,3-2,.8-.8,1.5-1.8,2-3,.5-1.2.7-2.4.7-3.9,0-3-.9-5.3-2.6-7-1.7-1.7-4-2.5-6.8-2.5s-2.6.2-3.7.7c-1.1.5-2.1,1.1-3,2-.8.8-1.5,1.8-2,3-.5,1.2-.7,2.4-.7,3.9s.2,2.7.7,3.9c.5,1.2,1.1,2.2,2,3,.8.8,1.8,1.5,3,2,1.1.5,2.4.7,3.7.7Z"/>
      <path class="st1" d="M196.4,44v14.2c0,.9.2,1.6.5,2.1.3.5.8.9,1.4,1.1.6.2,1.4.4,2.3.4s2,0,3.2-.1v6c-.8,0-1.5.1-2.1.2-.7,0-1.3,0-1.9,0-3.6,0-6.2-.8-7.7-2.4-1.5-1.6-2.3-4-2.3-7.4v-24.7c0-1.8,1.5-3.3,3.3-3.3h0c1.8,0,3.3,1.5,3.3,3.3v4.2s4.2,0,4.2,0c1.8,0,3.2,1.4,3.2,3.2h0c0,1.8-1.4,3.2-3.2,3.2h-4.2Z"/>
      <path class="st1" d="M232.9,37.7c1.8,0,3.3,1.5,3.3,3.3v15.3c0,1.8-.4,3.4-1.1,4.9-.7,1.5-1.7,2.8-2.9,3.9-1.2,1.1-2.7,1.9-4.4,2.6-1.7.6-3.5.9-5.5.9s-3.3-.3-4.9-.8c-1.6-.5-3.1-1.3-4.4-2.4-1.3-1.1-2.4-2.4-3.2-3.9-.8-1.5-1.2-3.2-1.2-5.2v-15.3c0-1.8,1.5-3.3,3.3-3.3h0c1.8,0,3.3,1.5,3.3,3.3v14.4c0,2.2.7,3.9,2,5.1,1.3,1.2,3,1.8,5.1,1.8s3.9-.6,5.2-1.8c1.3-1.2,2-2.9,2-5.1v-14.4c0-1.8,1.5-3.3,3.3-3.3h0Z"/>
      <path class="st1" d="M256.2,68.5c-2.3,0-4.4-.4-6.3-1.2-1.9-.8-3.6-1.9-5-3.3-1.4-1.4-2.5-3.1-3.3-5-.8-1.9-1.2-4-1.2-6.3s.4-4.3,1.2-6.3c.8-1.9,1.9-3.6,3.3-5,1.4-1.4,3.1-2.5,5-3.3,1.9-.8,4-1.2,6.3-1.2s5.6.7,8,2.1c2.4,1.4,4.2,3.3,5.4,5.6l-5.7,3.3c-.7-1.4-1.7-2.5-3-3.3-1.3-.8-2.9-1.2-4.7-1.2s-2.5.2-3.6.7c-1.1.5-2.1,1.1-2.9,2-.8.8-1.5,1.8-1.9,3-.5,1.1-.7,2.4-.7,3.7s.2,2.6.7,3.7c.5,1.1,1.1,2.1,1.9,3,.8.8,1.8,1.5,2.9,2,1.1.5,2.3.7,3.6.7s3.4-.4,4.8-1.2c1.4-.8,2.4-1.9,3.1-3.3l5.8,3.3c-1.3,2.3-3.1,4.2-5.5,5.6-2.4,1.4-5.1,2.1-8,2.1Z"/>
      <path class="st1" d="M288.3,36.9c2.4,0,4.5.3,6.5,1,2,.7,3.7,1.7,5.1,3.1,1.4,1.4,2.5,3,3.3,5,.8,2,1.2,4.3,1.2,6.9v14.9h-6.6v-4.4c-1.1,1.6-2.6,2.8-4.3,3.8-1.8.9-3.9,1.4-6.3,1.4s-4-.4-5.7-1.2c-1.8-.8-3.4-1.9-4.7-3.3-1.4-1.4-2.4-3.1-3.2-5-.8-1.9-1.2-4-1.2-6.3s.4-4.3,1.2-6.3c.8-1.9,1.9-3.6,3.3-5,1.4-1.4,3.1-2.5,5.1-3.3,1.9-.8,4.1-1.2,6.4-1.2ZM288.4,62.2c1.3,0,2.6-.2,3.7-.7,1.1-.5,2.1-1.1,3-2,.8-.8,1.5-1.8,2-3,.5-1.2.7-2.4.7-3.9,0-3-.9-5.3-2.6-7-1.7-1.7-4-2.5-6.8-2.5s-2.6.2-3.7.7c-1.1.5-2.1,1.1-3,2-.8.8-1.5,1.8-2,3-.5,1.2-.7,2.4-.7,3.9s.2,2.7.7,3.9c.5,1.2,1.1,2.2,2,3,.8.8,1.8,1.5,3,2,1.1.5,2.4.7,3.7.7Z"/>
      <path class="st1" d="M312.3,68.4c-1,0-1.8-.3-2.4-1-.6-.6-.9-1.4-.9-2.3s.3-1.7.9-2.3c.6-.6,1.4-1,2.4-1s1.7.3,2.3,1c.6.6,1,1.4,1,2.3s-.3,1.7-1,2.3c-.6.6-1.4,1-2.3,1Z"/>
      <path class="st1" d="M322.4,33.5c-.8,0-1.6-.3-2.1-.9-.6-.6-.9-1.3-.9-2.1s.3-1.5.9-2.1c.6-.6,1.3-.9,2.1-.9s1.5.3,2.1.9c.6.6.9,1.3.9,2.1s-.3,1.6-.9,2.1c-.6.6-1.3.9-2.1.9ZM322.4,37.7h0c1.2,0,2.1.9,2.1,2.1v28h-4.2v-28c0-1.2.9-2.1,2.1-2.1Z"/>
      <path class="st1" d="M344.6,36.9c2.4,0,4.6.4,6.5,1.1s3.6,1.8,4.9,3.2c1.3,1.4,2.4,3.1,3.1,5,.7,2,1.1,4.2,1.1,6.7v14.9h-4.3v-6c-1.2,2-2.8,3.7-4.9,4.9-2.1,1.2-4.5,1.8-7.3,1.8s-4.1-.4-5.9-1.2c-1.9-.8-3.5-1.9-4.9-3.3-1.4-1.4-2.5-3.1-3.3-5-.8-1.9-1.2-4-1.2-6.2s.4-4.3,1.2-6.2c.8-1.9,1.9-3.6,3.3-5,1.4-1.4,3.1-2.5,5.1-3.3,2-.8,4.2-1.2,6.6-1.2ZM344.3,64.4c1.6,0,3.2-.3,4.6-.9,1.4-.6,2.6-1.4,3.7-2.5,1-1.1,1.9-2.3,2.4-3.7.6-1.4.9-3,.9-4.6,0-3.8-1-6.7-3.1-8.7-2.1-2-4.9-3-8.5-3s-3.2.3-4.6.9c-1.4.6-2.7,1.4-3.7,2.5-1,1-1.9,2.3-2.5,3.7-.6,1.4-.9,3-.9,4.6s.3,3.2.9,4.6c.6,1.4,1.4,2.7,2.5,3.7,1,1.1,2.3,1.9,3.7,2.5,1.4.6,3,.9,4.6.9Z"/>
    </g>
    <path class="st0" d="M364.4,36.9c.5,0,1,0,1.4.3s.8.5,1.2.8c.3.3.6.7.8,1.2s.3.9.3,1.4,0,1-.3,1.4-.5.8-.8,1.2c-.3.3-.7.6-1.2.8s-.9.3-1.4.3-1,0-1.4-.3c-.4-.2-.8-.5-1.2-.8-.3-.3-.6-.7-.8-1.2s-.3-.9-.3-1.4,0-1,.3-1.4.5-.8.8-1.2c.3-.3.7-.6,1.2-.8.4-.2.9-.3,1.4-.3ZM364.4,43.7c.4,0,.8,0,1.2-.2.4-.2.7-.4,1-.7.3-.3.5-.6.6-1,.2-.4.2-.8.2-1.2s0-.8-.2-1.2c-.2-.4-.4-.7-.6-1-.3-.3-.6-.5-1-.7-.4-.2-.8-.2-1.2-.2s-.8,0-1.2.2c-.4.2-.7.4-1,.7-.3.3-.5.6-.7,1-.2.4-.2.8-.2,1.2s0,.8.2,1.2c.2.4.4.7.7,1,.3.3.6.5,1,.7.4.2.8.2,1.2.2ZM365.8,39.9c0,.3,0,.5-.2.7-.1.2-.3.3-.5.4l.8,1.5h-.7l-.7-1.3h-.7v1.3h-.6v-3.8h1.2c.2,0,.4,0,.6,0,.2,0,.3.2.4.3.1.1.2.2.3.4,0,.1,0,.3,0,.5ZM363.8,40.6h.6c.3,0,.5,0,.6-.2.1-.1.2-.3.2-.5s0-.4-.2-.5c-.1-.1-.3-.2-.6-.2h-.6v1.3Z"/>
  </g>
</svg>